<svg width="18" height="16" viewBox="0 0 18 16" fill="none" xmlns="http://www.w3.org/2000/svg">
<path d="M15.6667 1.83317H13.0251L11.5001 0.166504H6.50008L4.97508 1.83317H2.33341C1.41675 1.83317 0.666748 2.58317 0.666748 3.49984V13.4998C0.666748 14.4165 1.41675 15.1665 2.33341 15.1665H15.6667C16.5834 15.1665 17.3334 14.4165 17.3334 13.4998V3.49984C17.3334 2.58317 16.5834 1.83317 15.6667 1.83317ZM9.00008 4.33317C10.3584 4.33317 11.5501 4.9915 12.3167 5.99984H9.00008C7.61675 5.99984 6.50008 7.1165 6.50008 8.49984C6.50008 8.7915 6.55841 9.07484 6.65008 9.33317H4.91675C4.79348 8.72776 4.80633 8.10251 4.95438 7.50268C5.10242 6.90284 5.38196 6.34342 5.77276 5.86489C6.16356 5.38636 6.65586 5.00068 7.21402 4.73577C7.77218 4.47086 8.38225 4.33335 9.00008 4.33317ZM9.00008 12.6665C7.64175 12.6665 6.45008 12.0082 5.68341 10.9998H9.00008C10.3834 10.9998 11.5001 9.88317 11.5001 8.49984C11.5001 8.20817 11.4417 7.92484 11.3501 7.6665H13.0834C13.2067 8.27192 13.1938 8.89716 13.0458 9.49699C12.8977 10.0968 12.6182 10.6563 12.2274 11.1348C11.8366 11.6133 11.3443 11.999 10.7861 12.2639C10.228 12.5288 9.61792 12.6663 9.00008 12.6665Z" fill="#848484"/>
</svg>
